<svg xmlns="http://www.w3.org/2000/svg" viewBox="0 0 512.008 512.008"><path d="M501.342 245.185H36.424L210.227 71.404c4.093-4.237 3.975-10.99-.262-15.083-4.134-3.992-10.687-3.992-14.82 0l-192 192c-4.171 4.16-4.179 10.914-.019 15.085l.019.019 192 192c4.093 4.237 10.845 4.354 15.083.262 4.237-4.093 4.354-10.845.262-15.083a10.787 10.787 0 00-.262-.262L36.424 266.519h464.917c5.891 0 10.667-4.776 10.667-10.667s-4.775-10.667-10.666-10.667z" fill="#2196f3"/><path d="M202.675 458.519a10.663 10.663 0 01-7.552-3.115l-192-192c-4.164-4.165-4.164-10.917 0-15.083l192-192c4.237-4.093 10.99-3.975 15.083.262 3.992 4.134 3.992 10.687 0 14.82L25.758 255.852 210.206 440.3c4.171 4.16 4.179 10.914.019 15.085a10.672 10.672 0 01-7.55 3.134z"/><path d="M501.342 266.519H10.675c-5.891 0-10.667-4.776-10.667-10.667s4.776-10.667 10.667-10.667h490.667c5.891 0 10.667 4.776 10.667 10.667s-4.776 10.667-10.667 10.667z"/></svg>
