<svg xmlns="http://www.w3.org/2000/svg" viewBox="0 0 270.189 270.189"><path d="M224.408 139.658c0-4.143-3.357-7.5-7.5-7.5s-7.5 3.357-7.5 7.5c0 40.976-33.337 74.313-74.313 74.313-40.977 0-74.313-33.337-74.313-74.313 0-4.143-3.357-7.5-7.5-7.5s-7.5 3.357-7.5 7.5c0 46.721 36.063 85.173 81.813 88.995v26.536H94.188a7.499 7.499 0 00-7.5 7.5c0 4.143 3.357 7.5 7.5 7.5h81.813c4.143 0 7.5-3.357 7.5-7.5s-3.357-7.5-7.5-7.5h-33.406v-26.536c45.75-3.822 81.813-42.274 81.813-88.995z"/><path d="M135.095 188.064c26.691 0 48.406-21.715 48.406-48.406V48.406C183.501 21.715 161.787 0 135.095 0S86.688 21.715 86.688 48.406v91.252c0 26.692 21.716 48.406 48.407 48.406zm0-173.064c18.42 0 33.406 14.986 33.406 33.406v2.5h-16.406c-4.143 0-7.5 3.357-7.5 7.5s3.357 7.5 7.5 7.5h16.406v20.625h-16.406a7.499 7.499 0 00-7.5 7.5c0 4.143 3.357 7.5 7.5 7.5h16.406v20.627h-16.406a7.499 7.499 0 00-7.5 7.5c0 4.143 3.357 7.5 7.5 7.5h16.406v2.5c0 18.42-14.986 33.406-33.406 33.406-18.421 0-33.407-14.986-33.407-33.406v-2.5h16.407c4.143 0 7.5-3.357 7.5-7.5s-3.357-7.5-7.5-7.5h-16.407v-20.627h16.407c4.143 0 7.5-3.357 7.5-7.5s-3.357-7.5-7.5-7.5h-16.407V65.906h16.407c4.143 0 7.5-3.357 7.5-7.5s-3.357-7.5-7.5-7.5h-16.407v-2.5c0-18.42 14.986-33.406 33.407-33.406z"/></svg>
