<svg xmlns="http://www.w3.org/2000/svg" viewBox="0 0 512 512"><path d="M461.597 331.464L334.949 203.888l14.056-69.232a31.914 31.914 0 0011.376 2.184h.096c17.884.211 32.553-14.115 32.765-31.999.212-17.884-14.115-32.553-31.999-32.765-17.884-.211-32.553 14.115-32.765 31.999a32.384 32.384 0 001.871 11.237l-74.4 9.08L134.589 2.4a7.998 7.998 0 00-5.648-2.4 8 8 0 00-5.6 2.328l-22.688 22.56a8 8 0 000 11.312l12.208 12.384c-47.296 86.969-31.934 194.667 37.792 264.944a7.615 7.615 0 002.192 1.464 46.41 46.41 0 00-.784 8.208V416h-96c-22.08.026-39.974 17.92-40 40v16a8 8 0 008 8h368a8 8 0 008-8v-16c-.026-22.08-17.92-39.974-40-40h-96v-41.128a225.507 225.507 0 0045.728 4.8 222.746 222.746 0 00105.6-26.752l12.272 12.344a7.998 7.998 0 005.648 2.4 8 8 0 005.6-2.328l22.688-22.56a8 8 0 000-11.312zm-112.4-237.968c6.265-6.232 16.396-6.204 22.627.061 6.232 6.265 6.204 16.396-.061 22.627a16 16 0 01-11.287 4.656h-.048c-8.836-.046-15.963-7.246-15.917-16.083a16 16 0 014.717-11.261h-.031zm-18.832 52.568l-8.976 44.184-17.632-17.736 26.608-26.448zm-9.088-13.528l-28.8 28.632-22.28-22.4 51.08-6.232zM360.061 432c13.255 0 24 10.745 24 24v8h-352v-8c0-13.255 10.745-24 24-24h304zm-112-32v16h-80v-16h80zm-80-16v-60.8c0-19.408 17.944-35.2 40-35.2s40 15.792 40 35.2V384h-80zm96-25.44V323.2c0-28.232-25.12-51.2-56-51.2a57 57 0 00-49.216 26.792c-60.866-64.107-74.572-159.678-34.179-238.307l279.027 280.627a207.312 207.312 0 01-139.632 17.448zm169.336-10.256l-11.272-11.336L128.861 41.936l-11.32-11.344 11.32-11.28 119.024 119.696c.056 0 .088.104.144.144l196.72 197.872-11.352 11.28z"/><path d="M208.133 304h-.072c-13.255-.02-24.016 10.709-24.036 23.964S194.734 351.98 207.989 352h.072c13.255.02 24.016-10.709 24.036-23.964.02-13.255-10.709-24.016-23.964-24.036zm5.6 29.672a8 8 0 01-5.672 2.328 8 8 0 010-16 8 8 0 015.6 13.672h.072z"/></svg>
